<svg xmlns="http://www.w3.org/2000/svg" width="560" height="118" viewBox="0 0 560 118" font-family="Helvetica,Arial,sans-serif">
  <defs>
    <linearGradient id="s1" x1="0" y1="0" x2="0" y2="1"><stop offset="0" stop-color="#ff5247"/><stop offset="1" stop-color="#e11d2a"/></linearGradient>
    <linearGradient id="s2" x1="0" y1="0" x2="0" y2="1"><stop offset="0" stop-color="#ff9488"/><stop offset="1" stop-color="#ff7a6b"/></linearGradient>
    <linearGradient id="s3" x1="0" y1="0" x2="0" y2="1"><stop offset="0" stop-color="#d2342c"/><stop offset="1" stop-color="#a81e22"/></linearGradient>
    <linearGradient id="s4" x1="0" y1="0" x2="0" y2="1"><stop offset="0" stop-color="#7e1417"/><stop offset="1" stop-color="#5c0f12"/></linearGradient>
  </defs>

  <text x="0" y="14" fill="#9aa0a6" font-size="11" letter-spacing="1.2">ILLUSTRATIVE TRANSFER-COST COMPOSITION</text>

  <!-- stacked bar -->
  <g>
    <rect x="0"   y="26" width="190" height="30" rx="4" fill="url(#s1)"/>
    <rect x="194" y="26" width="124" height="30"        fill="url(#s2)"/>
    <rect x="322" y="26" width="146" height="30"        fill="url(#s3)"/>
    <rect x="472" y="26" width="88"  height="30" rx="4" fill="url(#s4)"/>
    <text x="95"  y="46" fill="#ffffff" font-size="12" font-weight="bold" text-anchor="middle">34%</text>
    <text x="256" y="46" fill="#3a0d0d" font-size="12" font-weight="bold" text-anchor="middle">22%</text>
    <text x="395" y="46" fill="#ffffff" font-size="12" font-weight="bold" text-anchor="middle">26%</text>
    <text x="516" y="46" fill="#ffffff" font-size="12" font-weight="bold" text-anchor="middle">18%</text>
  </g>

  <!-- legend -->
  <g font-size="12.5" fill="#3f3f46">
    <rect x="0"   y="78" width="13" height="13" rx="3" fill="url(#s1)"/><text x="20"  y="89">Stamp duty</text>
    <rect x="120" y="78" width="13" height="13" rx="3" fill="url(#s2)"/><text x="140" y="89">Registration</text>
    <rect x="0"   y="100" width="13" height="13" rx="3" fill="url(#s3)"/><text x="20"  y="111">Capital gains</text>
    <rect x="120" y="100" width="13" height="13" rx="3" fill="url(#s4)"/><text x="140" y="111">Withholding &amp; authority fees</text>
  </g>
</svg>
